<svg xmlns="http://www.w3.org/2000/svg" xmlns:xlink="http://www.w3.org/1999/xlink" width="960" zoomAndPan="magnify" viewBox="0 0 720 809.999993" height="1080" preserveAspectRatio="xMidYMid meet" version="1.0"><defs><filter x="0%" y="0%" width="100%" height="100%" id="b48deb2df1"><feColorMatrix values="0 0 0 0 1 0 0 0 0 1 0 0 0 0 1 0 0 0 1 0" color-interpolation-filters="sRGB"/></filter><mask id="a56d6778ba"><g filter="url(#b48deb2df1)"><rect x="-72" width="864" fill="#000000" y="-80.999999" height="971.999992" fill-opacity="0.6"/></g></mask><clipPath id="aae380f3fb"><path d="M 118 32 L 518 32 L 518 658 L 118 658 Z M 118 32 " clip-rule="nonzero"/></clipPath><clipPath id="ec755ac41e"><path d="M 194.054688 0.0390625 L 676.511719 208.101562 L 468.449219 690.558594 L -14.007812 482.496094 Z M 194.054688 0.0390625 " clip-rule="nonzero"/></clipPath><clipPath id="8b1c9ac939"><path d="M 194.054688 0.0390625 L 676.511719 208.101562 L 468.449219 690.558594 L -14.007812 482.496094 Z M 194.054688 0.0390625 " clip-rule="nonzero"/></clipPath><clipPath id="fe7fc66ec0"><rect x="0" width="677" y="0" height="691"/></clipPath><mask id="d3c42bd0d8"><g filter="url(#b48deb2df1)"><rect x="-72" width="864" fill="#000000" y="-80.999999" height="971.999992" fill-opacity="0.6"/></g></mask><clipPath id="8eaf641854"><path d="M 189 97 L 356 97 L 356 358 L 189 358 Z M 189 97 " clip-rule="nonzero"/></clipPath><clipPath id="3c671bfcf6"><path d="M 23.578125 20.179688 L 376.921875 52.925781 L 342.652344 422.703125 L -10.691406 389.960938 Z M 23.578125 20.179688 " clip-rule="nonzero"/></clipPath><clipPath id="5c3f32f8e6"><path d="M -151.246094 3.980469 L 377.398438 52.96875 L 343.132812 422.75 L -185.511719 373.757812 Z M -151.246094 3.980469 " clip-rule="nonzero"/></clipPath><clipPath id="9451ad4ff7"><path d="M 3 36 L 190 36 L 190 393 L 3 393 Z M 3 36 " clip-rule="nonzero"/></clipPath><clipPath id="b2200b87fb"><path d="M 23.578125 20.179688 L 376.921875 52.925781 L 342.652344 422.703125 L -10.691406 389.960938 Z M 23.578125 20.179688 " clip-rule="nonzero"/></clipPath><clipPath id="ae5ee858de"><path d="M -151.246094 3.980469 L 377.398438 52.96875 L 343.132812 422.75 L -185.511719 373.757812 Z M -151.246094 3.980469 " clip-rule="nonzero"/></clipPath><clipPath id="4e10544a00"><rect x="0" width="375" y="0" height="422"/></clipPath></defs><g mask="url(#a56d6778ba)"><g transform="matrix(1, 0, 0, 1, 0, 60)"><g clip-path="url(#fe7fc66ec0)"><g clip-path="url(#aae380f3fb)"><g clip-path="url(#ec755ac41e)"><g clip-path="url(#8b1c9ac939)"><path fill="#bfc7d0" d="M 517.515625 559.195312 C 516.980469 570.117188 514.675781 581.101562 510.429688 591.800781 C 510.074219 592.839844 509.640625 593.847656 509.1875 594.890625 C 486.558594 647.367188 425.632812 671.574219 373.15625 648.945312 C 159.429688 556.773438 60.898438 308.808594 153.070312 95.078125 C 175.699219 42.609375 236.625 18.394531 289.097656 41.027344 C 290.144531 41.476562 291.148438 41.910156 292.121094 42.421875 C 302.550781 47.289062 311.804688 53.710938 319.691406 61.285156 L 288.75 231.15625 C 288.714844 231.234375 288.660156 231.253906 288.566406 231.261719 L 210.445312 232.449219 L 210.21875 232.445312 C 200.8125 336.835938 241.949219 440.355469 320.441406 509.820312 L 320.601562 509.660156 L 378.289062 456.882812 L 517.515625 559.195312 " fill-opacity="1" fill-rule="nonzero"/></g></g></g></g></g></g><g mask="url(#d3c42bd0d8)"><g transform="matrix(1, 0, 0, 1, 300, 95)"><g clip-path="url(#4e10544a00)"><g clip-path="url(#8eaf641854)"><g clip-path="url(#3c671bfcf6)"><g clip-path="url(#5c3f32f8e6)"><path fill="#bfc7d0" d="M 213.003906 357.605469 C 205.203125 356.882812 200.246094 353.800781 195.527344 348.121094 C 186.09375 336.757812 187.539062 321.160156 198.902344 311.726562 L 292.636719 233.890625 L 214.800781 140.15625 C 205.363281 128.792969 206.808594 113.195312 218.171875 103.761719 C 229.535156 94.328125 245.132812 95.773438 254.566406 107.132812 L 348.914062 220.753906 C 358.347656 232.113281 356.902344 247.710938 345.539062 257.144531 L 231.921875 351.492188 C 226.242188 356.210938 220.800781 358.328125 213.003906 357.605469 Z M 213.003906 357.605469 " fill-opacity="1" fill-rule="nonzero"/></g></g></g><g clip-path="url(#9451ad4ff7)"><g clip-path="url(#b2200b87fb)"><g clip-path="url(#ae5ee858de)"><path fill="#bfc7d0" d="M 26.214844 392.734375 C 23.617188 392.492188 21.015625 392.25 18.65625 389.410156 C 6.140625 383.007812 -0.453125 369.285156 6.191406 354.171875 L 139.082031 51.859375 C 145.484375 39.34375 159.207031 32.75 174.320312 39.394531 C 186.835938 45.796875 193.429688 59.519531 186.785156 74.632812 L 53.898438 376.945312 C 47.734375 386.859375 36.613281 393.695312 26.214844 392.734375 Z M 26.214844 392.734375 " fill-opacity="1" fill-rule="nonzero"/></g></g></g></g></g></g></svg>