<svg xmlns="http://www.w3.org/2000/svg" viewBox="0 0 3000 2250" width="3000" height="2250"><g transform="translate(352.5 982.5) rotate(0.0 228.75 521.25) scale(4.977749730711899 5.026639986499192)"><svg width="91.909" height="207.395" viewBox="0 0 91.909 207.395"><path d="M83.272 70.417c-3.834-.934-11.362 2.698-15.374 4.863.357-.948.644-1.909.866-2.867.746-3.297.815-6.555.702-9.69a68.154 68.154 0 0 0-.133-2.335l-.021-.29-.005-.072-.027-.208-.019-.139-.076-.555-.153-1.108c-.029-.342-.145-.789-.254-1.221l-.331-1.29c-.226-.859-.574-1.588-.862-2.382-1.303-3.092-3.363-5.672-5.502-7.79-1.752-1.736-3.567-3.209-5.325-4.589 2.947.556 7.309 1.198 9.98.755 4.324-.718 7.396-3.908 6.862-7.125-.534-3.218-4.472-5.245-8.796-4.527-3.412.566-8.373 6.604-10.318 9.13-1.725-1.336-3.355-2.631-4.819-3.959-.458-.391-.854-.812-1.281-1.212l-.314-.302-.078-.075c.025.031-.032-.034-.025-.024l-.082-.1-.586-.708-.291-.352c-.076-.108-.123-.203-.187-.304l-.367-.591c-.258-.347-.49-.885-.731-1.347a31.772 31.772 0 0 1-2.235-5.898c-.568-1.965-.974-3.887-1.293-5.706a51.09 51.09 0 0 1-.636-5.935c2.34.93 8.209 3.119 11.663 3.119 4.383 0 7.936-2.644 7.936-5.906s-3.553-5.906-7.936-5.906c-3.479 0-9.412 5.206-11.716 7.357a35.82 35.82 0 0 1 .028-2.272c.14-2.646.522-4.715.999-6.052.083-.353.211-.636.331-.877l.287-.621.237-.513L42.984.5l-.349.474-.432.589a4.41 4.41 0 0 0-.535.851c-.349.6-.704 1.369-1.04 2.282-1.381-1.245-4.004-3.402-5.612-3.402-2.257 0-4.087 1.362-4.087 3.042s1.83 3.042 4.087 3.042c1.441 0 3.701-.741 5.149-1.277a29.054 29.054 0 0 0-.624 2.514c-.549 2.774-.837 6.213-.604 10.141.141 1.96.304 4.06.76 6.245.215 1.154.487 2.337.832 3.544-2.581-2.309-7.265-6.108-10.156-6.108-4.152 0-7.518 2.505-7.518 5.595s3.366 5.595 7.518 5.595c3.19 0 8.556-1.971 10.878-2.887.135.371.264.74.417 1.115.265.595.464 1.166.858 1.826l.545.964.28.474.269.369.541.743.136.187.034.047.157.182.083.091.333.365c.45.48.887.997 1.363 1.458 1.867 1.914 3.949 3.637 6.016 5.352 4.111 3.418 8.415 6.764 10.569 11.352.222.577.542 1.172.703 1.739l.258.85c.05.158.102.317.148.491-2.897-2.577-7.982-6.656-11.14-6.656-4.614 0-8.354 2.784-8.354 6.217 0 3.434 3.74 6.217 8.354 6.217 3.34 0 8.824-1.944 11.606-3.021.074.639.143 1.279.197 1.918.245 2.874.27 5.776-.193 8.524-.229 1.371-.598 2.695-1.134 3.909-.12.333-.266.548-.391.833-2.533 5.327-9.015 7.44-14.646 9.402-1.766-2.78-7.972-12.096-12.537-13.231-5.374-1.336-10.536.824-11.531 4.823s2.557 8.324 7.931 9.66c3.307.822 8.835.455 12.602.051l-.075.03c-7.46 3.049-17.466 5.66-22.438 12.489-4.363 5.992-2.113 13.627 1.953 19.538-3.955-2.21-11.537-6.018-15.418-5.128-5.397 1.238-9.026 5.499-8.104 9.515.922 4.017 6.044 6.269 11.442 5.03 4.363-1.001 11.22-5.566 13.689-7.28 1.245 1.518 2.583 2.871 3.913 3.979l5.62 4.682c.871.734 1.733 1.467 2.485 2.171.381.336.776.734 1.165 1.123.176.179.428.418.538.544l.511.557c1.335 1.497 2.533 3.025 3.546 4.555 2.034 3.059 3.535 5.969 4.698 8.406a122.378 122.378 0 0 1 2.548 5.77l.86 2.085.481-.136-.381-2.232a60.642 60.642 0 0 0-1.532-6.249c-.381-1.339-.899-2.795-1.512-4.369a41.413 41.413 0 0 0-2.307-4.991c-.948-1.732-2.04-3.564-3.469-5.328l-.05-.062c3.489 1.321 9.535 3.383 13.298 3.383 5.538 0 10.027-3.341 10.027-7.462s-4.489-7.462-10.027-7.462c-4.515 0-12.317 6.952-15.045 9.52-.15-.164-.301-.327-.468-.497a50.019 50.019 0 0 0-2.557-2.512c-4.873-4.416-10.468-8.48-13.401-14.55a16.677 16.677 0 0 1-.485-1.094 12.688 12.688 0 0 1-.751-2.636c3.309 1.284 9.99 3.665 14.035 3.665 5.538 0 10.027-3.341 10.027-7.462s-4.489-7.462-10.027-7.462c-4.08 0-10.841 5.674-14.119 8.663.651-5.973 7.265-9.499 13.166-12.071 4.411-1.923 9.011-3.362 13.582-4.846 4.776-1.551 9.655-4.106 13.548-7.427.339-.27.655-.58.957-.917.31-.352.608-.598.924-1.046l.353-.464.176-.232.192-.301c.128-.21.268-.427.401-.643 2.797 1.965 8.986 6.086 13.045 7.075 5.38 1.31 10.532-.874 11.508-4.878.976-3.999-2.595-8.307-7.975-9.617z" fill="#fff"/><path d="M51.658 155.558a.5.5 0 0 1-.462-.31l-.86-2.084a122.254 122.254 0 0 0-2.537-5.748c-.964-2.021-2.497-5.086-4.663-8.343-.979-1.477-2.157-2.99-3.503-4.499l-.507-.553a6.752 6.752 0 0 0-.312-.317l-.214-.214c-.402-.403-.776-.779-1.139-1.099a64.859 64.859 0 0 0-2.476-2.164l-5.619-4.681a30.37 30.37 0 0 1-3.685-3.691c-2.913 2-9.28 6.131-13.485 7.096-1.02.234-2.052.353-3.069.353-4.576 0-8.182-2.314-8.972-5.758-.482-2.101.153-4.315 1.789-6.235 1.6-1.878 3.976-3.256 6.69-3.879.42-.096.892-.145 1.403-.145 3.607 0 8.96 2.442 12.658 4.393-2.506-4.208-5.686-11.877-.889-18.466 4.136-5.68 11.654-8.494 18.287-10.978l1.187-.445c-4.012.264-7.212.144-9.28-.37-2.703-.672-5.054-2.092-6.62-3.999-1.601-1.95-2.196-4.175-1.676-6.267.833-3.348 4.385-5.598 8.839-5.598 1.093 0 2.203.138 3.297.41 4.47 1.111 10.167 9.287 12.625 13.114l.146-.051c5.378-1.869 11.473-3.988 13.838-8.963.048-.109.105-.22.163-.331.072-.139.146-.279.21-.457.509-1.156.879-2.431 1.112-3.822.404-2.397.466-5.144.188-8.398a53.945 53.945 0 0 0-.124-1.263c-3.042 1.15-8.015 2.823-11.182 2.823-4.882 0-8.854-3.013-8.854-6.717s3.972-6.717 8.854-6.717c2.791 0 6.844 2.844 10.146 5.633-.083-.222-.184-.45-.289-.686a14.414 14.414 0 0 1-.293-.691c-1.939-4.127-5.805-7.326-9.542-10.418l-.978-.811c-2.016-1.672-4.1-3.402-5.955-5.305-.31-.3-.612-.634-.913-.966-.152-.168-.304-.336-.457-.499l-.587-.653a5.564 5.564 0 0 1-.061-.08l-.945-1.299-.855-1.486c-.302-.506-.496-.966-.683-1.411-.064-.152-.128-.304-.196-.458-.094-.229-.176-.45-.255-.667-2.847 1.101-7.58 2.734-10.582 2.734-4.421 0-8.018-2.734-8.018-6.094 0-3.361 3.597-6.095 8.018-6.095 2.549 0 6.244 2.604 9.259 5.162a40.74 40.74 0 0 1-.427-2.006c-.444-2.128-.61-4.113-.767-6.301-.214-3.621-.002-7.171.613-10.274.11-.545.235-1.088.374-1.622-1.47.502-3.194.982-4.409.982-2.529 0-4.587-1.589-4.587-3.542S32.485.79 35.014.79c1.514 0 3.683 1.564 5.405 3.053.262-.641.536-1.206.814-1.685.16-.351.38-.657.572-.905L42.578.2a.5.5 0 0 1 .696-.109l.405.293a.5.5 0 0 1 .161.615l-.523 1.134a3.454 3.454 0 0 0-.298.782c-.514 1.449-.859 3.547-.986 5.964a28.7 28.7 0 0 0-.031 1.111c3.11-2.81 8.016-6.723 11.22-6.723 4.651 0 8.436 2.874 8.436 6.406s-3.784 6.406-8.436 6.406c-3.216 0-8.413-1.826-11.121-2.87a51.25 51.25 0 0 0 .587 5.103c.367 2.092.786 3.941 1.28 5.648a31.121 31.121 0 0 0 2.202 5.813l.198.394c.161.326.328.664.488.88l.467.752c.028.049.057.099.095.153l.915 1.105.008.007.391.376c.152.142.305.292.458.442.258.253.518.508.801.75 1.386 1.256 2.923 2.484 4.406 3.637 2.554-3.269 7.013-8.372 10.325-8.921a11.055 11.055 0 0 1 1.817-.151c3.951 0 7.057 2.093 7.554 5.089.578 3.484-2.685 6.939-7.273 7.701-2.022.337-5.46.023-8.22-.419 1.275 1.037 2.578 2.16 3.835 3.405 2.609 2.583 4.444 5.183 5.611 7.95.102.279.201.528.301.777.209.524.425 1.066.584 1.672l.333 1.292c.126.504.236.941.267 1.303l.272 1.99.008.1.021.29c.058.775.103 1.56.134 2.351.097 2.678.103 6.213-.714 9.82a23.245 23.245 0 0 1-.469 1.722c3.653-1.897 9.318-4.479 13.096-4.479a6.39 6.39 0 0 1 1.512.165c2.706.659 5.063 2.068 6.638 3.968 1.61 1.942 2.216 4.165 1.706 6.258-.821 3.374-4.388 5.64-8.874 5.64-1.073 0-2.163-.133-3.237-.395-3.869-.942-9.5-4.568-12.782-6.849l-.517.766-.353.464a6.018 6.018 0 0 1-.651.757c-.098.102-.196.203-.296.316a8.272 8.272 0 0 1-1.021.977c-3.732 3.185-8.604 5.856-13.705 7.512l-1.244.403c-4.082 1.321-8.304 2.687-12.292 4.426-5.492 2.395-11.164 5.466-12.582 10.24 3.743-3.291 9.554-7.79 13.335-7.79 5.805 0 10.527 3.571 10.527 7.961s-4.722 7.962-10.527 7.962c-3.768 0-9.675-1.98-13.359-3.371.137.547.317 1.101.539 1.656.144.359.302.713.47 1.062 2.347 4.855 6.504 8.469 10.525 11.963a178.19 178.19 0 0 1 2.762 2.434 50.86 50.86 0 0 1 2.583 2.537l.13.134c3.29-3.058 10.564-9.312 15.021-9.312 5.805 0 10.527 3.572 10.527 7.962s-4.722 7.962-10.527 7.962c-3.322 0-8.368-1.569-11.864-2.821 1.063 1.489 1.887 2.925 2.523 4.088a42.054 42.054 0 0 1 2.336 5.052c.685 1.756 1.17 3.159 1.526 4.411.8 2.642 1.244 4.75 1.542 6.291l.383 2.243a.5.5 0 0 1-.357.565l-.481.136a.37.37 0 0 1-.137.024zm-25.884-34.872c.146 0 .289.063.387.183 1.196 1.459 2.526 2.812 3.846 3.911l5.62 4.683c.842.709 1.727 1.46 2.507 2.19.367.322.758.714 1.143 1.101l.241.24c.139.137.277.274.353.361l.504.55a41.254 41.254 0 0 1 3.594 4.616c2.2 3.31 3.755 6.417 4.732 8.467a124.382 124.382 0 0 1 2.559 5.794l.013.03-.006-.038a59.92 59.92 0 0 0-1.518-6.188c-.35-1.229-.826-2.603-1.5-4.332a41.257 41.257 0 0 0-2.281-4.934c-.811-1.481-1.932-3.417-3.418-5.252-.142-.176-.174-.456-.042-.639s.345-.286.557-.206c3.304 1.251 9.402 3.351 13.121 3.351 5.253 0 9.527-3.123 9.527-6.962s-4.274-6.962-9.527-6.962c-4.392 0-12.364 7.182-14.702 9.384a.5.5 0 0 1-.71-.026 18.136 18.136 0 0 0-.456-.484 49.052 49.052 0 0 0-2.537-2.493c-.897-.813-1.82-1.615-2.746-2.419-4.097-3.561-8.333-7.243-10.77-12.283-.179-.37-.346-.745-.499-1.126a13.281 13.281 0 0 1-.78-2.739.5.5 0 0 1 .674-.549c3.495 1.356 9.941 3.631 13.854 3.631 5.253 0 9.527-3.123 9.527-6.962 0-3.838-4.274-6.961-9.527-6.961-3.991 0-10.968 5.967-13.782 8.533a.5.5 0 0 1-.834-.424c.666-6.111 7.18-9.736 13.463-12.476 4.034-1.759 8.279-3.132 12.384-4.46l1.243-.403c4.979-1.616 9.73-4.22 13.378-7.332.309-.246.602-.526.909-.87.107-.122.216-.235.325-.347.193-.2.376-.389.563-.653l1.104-1.613a.503.503 0 0 1 .713-.146c2.529 1.777 8.846 6.017 12.876 6.998a12.7 12.7 0 0 0 3.001.366c4.017 0 7.192-1.959 7.902-4.876.433-1.779-.101-3.691-1.504-5.384-1.438-1.735-3.607-3.026-6.105-3.634-.371-.09-.8-.136-1.275-.136-3.971 0-10.315 3.104-13.744 4.953a.498.498 0 0 1-.705-.616c.341-.903.625-1.847.847-2.804.791-3.492.784-6.943.69-9.559a67.192 67.192 0 0 0-.132-2.316l-.144-1.233-.153-1.107c-.027-.307-.127-.705-.224-1.089l-.351-1.366c-.143-.545-.339-1.035-.546-1.554a25.88 25.88 0 0 1-.302-.782c-1.106-2.621-2.87-5.116-5.384-7.605-1.731-1.715-3.562-3.201-5.282-4.552a.498.498 0 0 1-.146-.6.499.499 0 0 1 .548-.285c2.164.408 5.269.894 7.778.894.781 0 1.463-.047 2.027-.141 4.045-.671 6.939-3.61 6.451-6.55-.409-2.465-3.171-4.253-6.568-4.253-.546 0-1.103.046-1.653.138-3.318.55-8.497 6.983-10.004 8.941a.502.502 0 0 1-.702.09c-1.618-1.253-3.326-2.603-4.849-3.983-.291-.248-.566-.518-.84-.787-.148-.145-.295-.29-.446-.431l-.383-.369a.563.563 0 0 1-.079-.08l-.958-1.159a2.56 2.56 0 0 1-.165-.256l-.429-.693c-.191-.255-.378-.633-.558-1l-.192-.381a32.128 32.128 0 0 1-2.274-5.998c-.502-1.734-.929-3.618-1.303-5.75a51.87 51.87 0 0 1-.644-5.997.502.502 0 0 1 .684-.489c2.332.927 8.116 3.083 11.479 3.083 4.1 0 7.436-2.425 7.436-5.406s-3.335-5.406-7.436-5.406c-3.377 0-9.561 5.528-11.375 7.222a.501.501 0 0 1-.842-.357 36.032 36.032 0 0 1 .028-2.304c.126-2.383.46-4.485.947-5.961a15.16 15.16 0 0 0-.886 1.997.501.501 0 0 1-.804.199C37.979 2.983 36.056 1.79 35.01 1.79c-1.978 0-3.587 1.14-3.587 2.542 0 1.401 1.609 2.542 3.587 2.542 1.038 0 2.805-.442 4.975-1.246a.5.5 0 0 1 .653.611 28.83 28.83 0 0 0-.613 2.47c-.599 3.019-.805 6.482-.596 10.013.154 2.145.317 4.094.75 6.172.225 1.205.501 2.382.824 3.508a.5.5 0 0 1-.814.511c-4.249-3.8-7.829-5.98-9.823-5.98-3.87 0-7.018 2.286-7.018 5.095s3.148 5.094 7.018 5.094c3.125 0 8.52-1.995 10.694-2.852a.5.5 0 0 1 .654.294l.087.242c.103.284.205.568.322.856.065.145.132.303.198.462.182.432.354.84.626 1.296l1.068 1.77.916 1.207.333.365c.153.163.309.334.465.507.286.316.573.635.877.929 1.828 1.875 3.892 3.587 5.888 5.243l.977.81c3.823 3.163 7.775 6.433 9.824 10.797.096.246.192.461.288.677.165.371.334.754.444 1.138l.255.842c.054.169.105.331.152.505a.5.5 0 0 1-.814.504c-2.743-2.438-7.793-6.53-10.808-6.53-4.331 0-7.854 2.564-7.854 5.717s3.523 5.717 7.854 5.717c3.225 0 8.543-1.872 11.426-2.987a.502.502 0 0 1 .677.409c.075.645.144 1.289.198 1.933.285 3.34.22 6.169-.198 8.649-.247 1.473-.641 2.829-1.17 4.028-.068.192-.159.37-.25.545-.048.093-.097.186-.142.288-2.551 5.366-8.856 7.558-14.419 9.492l-.52.181a.5.5 0 0 1-.586-.204c-3.637-5.725-8.761-12.149-12.235-13.013a12.712 12.712 0 0 0-3.056-.38c-3.987 0-7.149 1.944-7.869 4.839-.442 1.777.083 3.691 1.479 5.391 1.43 1.742 3.592 3.043 6.088 3.663 2.51.625 6.908.632 12.428.04a.498.498 0 0 1 .244.959 159.524 159.524 0 0 1-4.469 1.723c-6.501 2.434-13.87 5.192-17.829 10.63-5.144 7.063-.342 15.613 1.961 18.96a.501.501 0 0 1-.656.72c-3.473-1.941-9.894-5.196-13.883-5.196-.436 0-.833.04-1.179.12-2.506.575-4.691 1.837-6.153 3.553-1.426 1.674-1.985 3.579-1.576 5.363.684 2.98 3.897 4.982 7.997 4.982.942 0 1.899-.11 2.845-.327 4.228-.97 10.86-5.36 13.516-7.203a.545.545 0 0 1 .293-.09z" fill="#1d2445"/><path d="M66.281 206.895h-36l-11-62h58z" fill="#fff"/><path d="M66.28 207.395h-36a.499.499 0 0 1-.492-.413l-11-62a.5.5 0 0 1 .492-.588h58a.497.497 0 0 1 .492.588l-11 62a.498.498 0 0 1-.492.413zm-35.581-1h35.162l10.822-61H19.877z" fill="#1d2445"/></svg></g><g transform="translate(615.0 213.75) rotate(0.0 493.125 909.375) scale(4.981060606060606 4.969262295081967)"><svg width="198" height="366" viewBox="0 0 198 366"><path d="M20.5 361.5h157c8.837 0 16-7.163 16-16v-325c0-8.837-7.163-16-16-16h-157c-8.837 0-16 7.163-16 16v325c0 8.837 7.163 16 16 16z" fill="#fff"/><g fill="#1d2445"><path d="M177.5 366h-157C9.196 366 0 356.804 0 345.5v-325C0 9.196 9.196 0 20.5 0h157C188.804 0 198 9.196 198 20.5v325c0 11.304-9.196 20.5-20.5 20.5zM20.5 9C14.159 9 9 14.159 9 20.5v325c0 6.341 5.159 11.5 11.5 11.5h157c6.341 0 11.5-5.159 11.5-11.5v-325c0-6.341-5.159-11.5-11.5-11.5z"/><path d="M99 2.228H58.683l3.15 6.719h14.43c4.554 0 9.002 1.369 12.768 3.93l3.798 2.582a10.976 10.976 0 0 0 12.344 0l3.798-2.582a22.704 22.704 0 0 1 12.768-3.93h14.43l3.15-6.719z"/></g></svg></g><g transform="translate(731.25 1297.5) rotate(0.0 742.5 367.5) scale(4.218869854257223 4.248309346280562)"><svg width="351.99" height="173.01" viewBox="0 0 351.99 173.01"><path d="m189.52 88.46 7.98 32.79-71.09 17.81-7.98-32.79z" fill="#fff"/><g fill="#1d2445"><path d="M126.41 139.56c-.09 0-.18-.02-.26-.07a.515.515 0 0 1-.23-.31l-7.98-32.79c-.06-.27.1-.54.36-.6l71.09-17.81c.13-.03.27-.01.38.06s.2.18.23.31l7.98 32.79c.06.27-.1.54-.36.6l-71.09 17.81s-.08.02-.12.02zm-7.37-32.93 7.74 31.82 70.12-17.57-7.74-31.82z"/><path d="M7.62 166.64.64 137.93c-.64-2.64.94-5.3 3.54-5.95l154.64-38.74 9.31 38.26-154.64 38.74c-2.6.65-5.23-.96-5.87-3.6z"/><path d="M12.32 170.88c-.95 0-1.89-.26-2.73-.77-1.24-.75-2.11-1.94-2.45-3.36s-6.98-28.7-6.98-28.7c-.71-2.9 1.05-5.84 3.91-6.56l154.64-38.74c.13-.03.27-.01.38.06s.2.18.23.31l9.31 38.26c.06.27-.1.54-.36.6L13.61 170.72c-.43.11-.86.16-1.29.16zm-4.21-4.36c.28 1.16.99 2.13 2 2.74.99.6 2.15.77 3.26.49l154.16-38.62-9.07-37.29L4.31 132.46c-2.33.58-3.75 2.98-3.18 5.35z"/></g><ellipse cx="266.76" cy="86.49" fill="#fff" rx="79.87" ry="81.06"/><path d="M266.61 172.51c-15.25 0-30.26-4.21-43.65-12.42-19.37-11.87-33.02-30.69-38.45-52.99-5.42-22.3-1.97-45.4 9.73-65.06s30.24-33.52 52.21-39.02C291.8-8.34 337.81 19.86 349 65.89s-16.59 92.72-61.95 104.08a84.496 84.496 0 0 1-20.46 2.54zm.15-162.17c-5.94 0-11.96.72-17.98 2.23-19.46 4.87-35.88 17.15-46.24 34.56s-13.42 37.87-8.62 57.62 16.89 36.41 34.05 46.93c17.15 10.52 37.31 13.62 56.77 8.75 40.16-10.06 64.78-51.41 54.86-92.17-8.43-34.66-39.15-57.9-72.84-57.9z" fill="#1d2445"/><path d="M266.61 173.01c-15.4 0-30.58-4.32-43.91-12.49-19.48-11.94-33.22-30.87-38.67-53.3-5.45-22.42-1.98-45.66 9.79-65.44 11.77-19.77 30.42-33.71 52.52-39.25 21.86-5.48 44.58-2.04 63.98 9.68C330.09 24.15 344 43.17 349.5 65.77c11.26 46.29-16.69 93.26-62.31 104.68a85.055 85.055 0 0 1-20.58 2.56zM266.83.99c-6.75 0-13.54.83-20.25 2.51-21.84 5.47-40.27 19.25-51.9 38.79-11.63 19.55-15.07 42.52-9.68 64.69s18.97 40.88 38.22 52.68c13.17 8.08 28.18 12.34 43.39 12.35 6.85 0 13.69-.85 20.33-2.52 45.09-11.3 72.71-57.72 61.58-103.48-5.43-22.34-19.19-41.14-38.72-52.94C296.58 5.09 281.81 1 266.83 1zm-.21 162.18c-13.6 0-26.98-3.75-38.92-11.07-17.27-10.58-29.44-27.36-34.27-47.24-4.83-19.87-1.75-40.47 8.68-57.99s26.96-29.88 46.55-34.78a74.46 74.46 0 0 1 18.1-2.24c34.83 0 64.98 23.97 73.33 58.29 9.98 41.03-14.79 82.65-55.22 92.78a75.296 75.296 0 0 1-18.24 2.26zm.13-152.33c-5.99 0-12 .74-17.85 2.21-19.33 4.84-35.64 17.03-45.93 34.33s-13.34 37.63-8.56 57.24c4.77 19.62 16.78 36.17 33.82 46.62 17.04 10.44 37.06 13.53 56.39 8.69 39.9-10 64.35-51.07 54.5-91.57-8.24-33.87-37.99-57.52-72.36-57.52z" fill="#1d2445"/></svg></g><g transform="translate(840.0 810.0) rotate(0.0 270.0 270.0) scale(5.009183503088996 5.009183503088996)"><svg width="107.802" height="107.802" viewBox="0 0 107.802 107.802"><g fill="#1D2445"><path d="M0 15.557 15.556.001l92.245 92.245-15.556 15.556z"/><path d="M0 92.246 92.243 0 107.8 15.557l-92.245 92.245z"/></g></svg></g><g transform="translate(1732.5 465.0) rotate(0.0 466.875 787.5) scale(5.0236184040630105 5.043405307263464)"><svg width="185.872" height="312.289" viewBox="0 0 185.872 312.289"><path d="m144.189 190.146-28.075-18.566 13.522-5.835 4.803-14.977c.86-4.619-2.327-9.804-6.984-10.397l-62.561-6.574c-2.103-.245-6.893-.141-12.649.131-5.742-2.766-9.919-4.732-9.919-4.732l-4.255 5.573c-10.695.728-20.373 1.546-20.373 1.546L15.795 151.1c-2.154 16.735 9.022 30.295 24.507 34.492 2.111 1.454 56.727 21.883 56.727 21.883l36.349 5.73 11.654-10.562c3.056-3.569 2.892-9.653-.843-12.497z" fill="#1d2445"/><path d="M133.378 213.705a.512.512 0 0 1-.078-.006l-36.35-5.729a.658.658 0 0 1-.097-.025c-2.209-.827-53.608-20.061-56.752-21.889-16.675-4.552-26.871-18.941-24.803-35.019l1.903-14.787a.501.501 0 0 1 .454-.435c.096-.009 9.666-.814 20.155-1.53l4.117-5.394a.499.499 0 0 1 .61-.148s4.123 1.94 9.809 4.678c6.459-.302 10.696-.344 12.604-.122l62.556 6.574c2.2.28 4.197 1.519 5.635 3.488 1.588 2.179 2.256 4.981 1.787 7.498l-4.817 15.037a.503.503 0 0 1-.278.307l-12.673 5.469 27.304 18.057c1.784 1.357 2.893 3.43 3.15 5.854.285 2.681-.539 5.441-2.203 7.385l-11.698 10.607a.498.498 0 0 1-.335.13zm-36.221-6.716 36.063 5.685 11.477-10.401c1.445-1.693 2.181-4.172 1.925-6.584-.229-2.148-1.199-3.976-2.734-5.146l-28.048-18.547a.502.502 0 0 1 .077-.876l13.313-5.745 4.732-14.76c.404-2.19-.198-4.704-1.628-6.664-1.272-1.746-3.027-2.842-4.942-3.085l-62.55-6.573c-1.859-.216-6.115-.171-12.573.133a.435.435 0 0 1-.24-.049 1444.768 1444.768 0 0 0-9.55-4.557l-4.01 5.252a.498.498 0 0 1-.363.195c-9.352.636-18.022 1.349-19.963 1.511l-1.852 14.386c-2.006 15.591 7.921 29.55 24.142 33.945a.531.531 0 0 1 .153.07c1.689 1.165 41.361 16.121 56.571 21.81z" fill="#1d2445"/><path d="m185.291 306.467-.287-.825a4.316 4.316 0 0 0-3.063-2.778l-15.496-3.746a12.923 12.923 0 0 1-7.335-4.851l-3.562-4.791a4.318 4.318 0 0 0-3.465-1.741h-14.097v3.004l-1.822 4.985a28.76 28.76 0 0 0-1.746 10.131l.023 2.527h21.936l.001.001h27.551c.992 0 1.688-.979 1.362-1.916z" fill="#fff"/><path d="m183.928 308.883-49.487-.001a.5.5 0 0 1-.5-.495l-.023-2.527a29.145 29.145 0 0 1 1.776-10.309l1.791-4.901v-2.916a.5.5 0 0 1 .5-.5h14.098c1.516 0 2.961.727 3.866 1.944l3.563 4.789a12.44 12.44 0 0 0 7.051 4.664l15.496 3.746a4.795 4.795 0 0 1 3.418 3.101l.287.825a1.92 1.92 0 0 1-.252 1.763c-.37.519-.947.817-1.584.817zm-48.992-1.001 48.992.001c.31 0 .589-.145.769-.396a.929.929 0 0 0 .121-.855l-.287-.825a3.798 3.798 0 0 0-2.707-2.456l-15.496-3.746a13.447 13.447 0 0 1-7.619-5.04l-3.563-4.789a3.832 3.832 0 0 0-3.063-1.541h-13.598v2.505a.532.532 0 0 1-.03.172l-1.821 4.984a28.15 28.15 0 0 0-1.716 9.955z" fill="#1d2445"/><path d="M134.416 307.982h50.683v3.807h-50.683z" fill="#fff"/><path d="M185.1 312.289h-50.684a.5.5 0 0 1-.5-.5v-3.808a.5.5 0 0 1 .5-.5H185.1a.5.5 0 0 1 .5.5v3.808a.5.5 0 0 1-.5.5zm-50.184-1H184.6v-2.808h-49.684zm.879-13.366 35.209-12.498-23.212-88.434c-2.214-7.413-6.453-8.124-11.604-6.429l-25.998 8.553-.061 29.003a48.869 48.869 0 0 0 4.377 20.319z" fill="#1d2445"/><path d="M135.794 298.423a.5.5 0 0 1-.459-.303l-21.289-49.486a49.03 49.03 0 0 1-4.418-20.518l.061-29.003a.5.5 0 0 1 .344-.474l25.998-8.553c1.613-.531 3.008-.789 4.265-.789 3.849 0 6.457 2.47 7.976 7.55l23.216 88.45a.5.5 0 0 1-.316.599l-35.209 12.498a.5.5 0 0 1-.169.029zm-25.106-98.946-.06 28.642a48.052 48.052 0 0 0 4.332 20.111l21.108 49.065 34.334-12.188-23.095-87.989c-1.389-4.647-3.618-6.82-7.013-6.82-1.148 0-2.441.242-3.952.738zM62.139 48.633H46.53V8.43A7.93 7.93 0 0 1 54.46.5h4.904a2.776 2.776 0 0 1 2.776 2.776v45.357z" fill="#1d2445"/><path d="M62.139 49.134H46.53a.5.5 0 0 1-.5-.5V8.43c0-4.649 3.782-8.43 8.43-8.43h4.903a3.28 3.28 0 0 1 3.275 3.275v45.358a.499.499 0 0 1-.499.501zm-15.109-1h14.609V3.275A2.278 2.278 0 0 0 59.364 1H54.46c-4.098 0-7.431 3.333-7.431 7.43v39.704z" fill="#1d2445"/><path d="m75.588 109.117.757-7.508a8.115 8.115 0 0 1 2.246-4.833l3.517-3.63a8.116 8.116 0 0 0 1.218-9.673l-2.583-4.522a8.116 8.116 0 0 1-.789-6.141l1.835-6.798a14.105 14.105 0 0 0-7.144-16.208l-11.263-5.819-6.522-.195a21.571 21.571 0 0 0-12.529 3.559l-12.225 8.07a29.708 29.708 0 0 0-11.264 13.902c-.014.028-.032.053-.046.082l-9.513 19.448-9.495 23.277a6.817 6.817 0 0 0 2.666 8.335l1.824 1.154a6.446 6.446 0 0 0 5.473.675c.02 3.318.048 5.688.048 5.688l1.105 24.508 69.46-2.901-2.88-18.793z" fill="#fff"/><path d="M12.904 152.984a.499.499 0 0 1-.499-.478L11.3 128a940.29 940.29 0 0 1-.045-5.057 7.01 7.01 0 0 1-5.245-.906l-1.824-1.154a7.312 7.312 0 0 1-2.861-8.947L10.82 88.66l9.527-19.479C22.672 63.318 26.633 58.43 31.83 55l12.226-8.07a21.91 21.91 0 0 1 12.818-3.642l6.522.195a.505.505 0 0 1 .215.056l11.263 5.819c6.065 3.134 9.176 10.191 7.396 16.782l-1.835 6.798a7.57 7.57 0 0 0 .74 5.764l2.584 4.521c1.89 3.31 1.357 7.532-1.293 10.27l-3.517 3.63a7.648 7.648 0 0 0-2.108 4.535l-.75 7.438 3.884 21.605 2.882 18.806a.504.504 0 0 1-.473.577l-69.46 2.9h-.02zm-1.153-31.195a.497.497 0 0 1 .5.497c.02 3.315.048 5.685.048 5.686l1.082 23.992 68.403-2.856-2.795-18.24-3.895-21.662a.499.499 0 0 1-.005-.139l.758-7.508a8.65 8.65 0 0 1 2.384-5.131l3.517-3.63c2.344-2.42 2.813-6.153 1.143-9.078l-2.584-4.521a8.565 8.565 0 0 1-.836-6.521l1.835-6.797c1.657-6.141-1.241-12.715-6.891-15.634L63.253 44.48l-6.408-.191a20.939 20.939 0 0 0-12.238 3.476l-12.226 8.07a29.092 29.092 0 0 0-11.075 13.668 1.589 1.589 0 0 1-.055.109l-9.52 19.456-9.481 23.245a6.313 6.313 0 0 0 2.471 7.725l1.824 1.154a6.009 6.009 0 0 0 5.051.622.488.488 0 0 1 .155-.025z" fill="#1d2445"/><path d="M59.065 8.195a2 2 0 0 1-1.732-2.997c.818-1.423 2.497-2.517 4.491-2.927 2.216-.456 4.415-.021 6.033 1.193a1.999 1.999 0 1 1-2.401 3.199c-.691-.519-1.751-.695-2.827-.474-.976.201-1.632.66-1.828 1.002a1.997 1.997 0 0 1-1.736 1.004z" fill="#fff"/><path d="M59.066 8.695c-.436 0-.865-.115-1.244-.333a2.506 2.506 0 0 1-.922-3.413c.889-1.546 2.692-2.73 4.824-3.168 2.351-.481 4.711-.011 6.434 1.283.534.399.881.984.975 1.646a2.482 2.482 0 0 1-.475 1.854c-.794 1.06-2.436 1.3-3.501.499-.565-.424-1.498-.575-2.426-.384-.907.187-1.398.594-1.495.761a2.509 2.509 0 0 1-2.17 1.255zm4.474-6.101c-.534 0-1.077.056-1.615.167-1.855.381-3.41 1.386-4.158 2.687a1.503 1.503 0 0 0 .554 2.048c.696.401 1.652.136 2.048-.553.314-.55 1.163-1.038 2.161-1.243 1.206-.249 2.434-.032 3.228.563.645.486 1.619.341 2.1-.299.241-.321.343-.716.286-1.112s-.265-.747-.585-.987c-1.108-.832-2.497-1.271-4.019-1.271z" fill="#1d2445"/><path d="m58.868 36.22 23.291-8.329v-7.72c0-7.987-6.474-14.461-14.461-14.461h-4.104c-7.987 0-14.461 6.474-14.461 14.461v6.314c.001 5.376 4.359 9.735 9.735 9.735z" fill="#1d2445"/><path d="M58.868 36.72c-5.644 0-10.234-4.591-10.234-10.234v-6.314c0-8.249 6.712-14.961 14.961-14.961h4.104c8.249 0 14.961 6.712 14.961 14.961v7.72a.502.502 0 0 1-.332.471l-23.291 8.329a.535.535 0 0 1-.169.028zm4.727-30.51c-7.698 0-13.961 6.263-13.961 13.961v6.314c0 5.063 4.097 9.188 9.148 9.234l22.877-8.182V20.17c0-7.698-6.263-13.961-13.961-13.961h-4.103z" fill="#1d2445"/><path d="M72.22 59.086V26.724H54.792v16.751L70.33 59.84c.681.718 1.89.236 1.89-.754z" fill="#fff"/><path d="M71.116 60.684c-.436 0-.844-.178-1.149-.499L54.43 43.819a.501.501 0 0 1-.138-.345v-16.75a.5.5 0 0 1 .5-.5H72.22a.5.5 0 0 1 .5.5v32.361c0 .449-.178.862-.5 1.163a1.635 1.635 0 0 1-1.104.436zM55.292 43.275l15.399 16.22c.35.368.65.204.847.022a.572.572 0 0 0 .182-.432v-31.86H55.292z" fill="#1d2445"/><path d="M66.749 47.648a1.71 1.71 0 0 0 1.216.492l6.661-.097a1.705 1.705 0 0 0 1.447-.831l2.666-4.462a14.602 14.602 0 0 0 2.067-7.49v-8.72h-25.86v12.42" fill="#fff"/><path d="M67.952 48.64c-.58 0-1.145-.231-1.555-.637a.5.5 0 0 1 .703-.711c.227.225.529.38.859.348l6.658-.098a1.21 1.21 0 0 0 1.025-.587l2.666-4.463a14.107 14.107 0 0 0 1.996-7.233v-8.22H55.447v11.92a.5.5 0 0 1-1 0v-12.42a.5.5 0 0 1 .5-.5h25.859a.5.5 0 0 1 .5.5v8.72c0 2.727-.739 5.405-2.137 7.747l-2.666 4.462a2.22 2.22 0 0 1-1.872 1.074l-6.659.098h-.02z" fill="#1d2445"/><path d="M69.964 43.292a.5.5 0 0 1-.032-.999l1.846-.123a1.492 1.492 0 0 0 1.4-1.462l.113-4.972v-4.591c0-.194.113-.372.29-.454l7.022-3.255a.501.501 0 0 1 .42.908l-6.732 3.12v4.283l-.113 4.983a2.488 2.488 0 0 1-2.334 2.437l-1.846.123c-.011.002-.022.002-.034.002z" fill="#1d2445"/><path d="M54.367 24.296h.147A2.494 2.494 0 0 1 57 26.782v6.886a2.494 2.494 0 0 1-2.486 2.486h-.147a2.494 2.494 0 0 1-2.486-2.486v-6.886a2.493 2.493 0 0 1 2.486-2.486z" fill="#fff"/><g fill="#1d2445"><ellipse cx="68.445" cy="27.761" rx="13.714" ry="6.389"/><path d="M68.445 34.65c-7.971 0-14.214-3.026-14.214-6.89s6.243-6.89 14.214-6.89 14.215 3.026 14.215 6.89-6.245 6.89-14.215 6.89zm0-12.779c-7.163 0-13.214 2.697-13.214 5.89s6.051 5.89 13.214 5.89 13.215-2.697 13.215-5.89-6.052-5.89-13.215-5.89z"/><path d="M55.217 19.181h4.625v8.763h-4.625zM27.458 106.04a.441.441 0 0 1-.21-.052c-.213-.116-.325-.178-.138-.706l-.029-.021a.57.57 0 0 1 .067-.085c.239-.623.828-1.809 2.006-4.175 1.285-2.585 3.009-6.027 4.734-9.469 3.45-6.882 6.912-13.758 6.912-13.758a.5.5 0 0 1 .815-.114l2.903 3.167a.5.5 0 1 1-.736.676l-2.414-2.633c-3.815 7.58-12.581 25.028-13.358 26.723a.472.472 0 0 1-.061.165.587.587 0 0 1-.491.282zm42.123 3.538H44.9a1.899 1.899 0 0 1-1.893-1.893v-1.237c0-1.041.852-1.893 1.893-1.893h24.681c1.041 0 1.893.852 1.893 1.893v1.237a1.899 1.899 0 0 1-1.893 1.893z"/><path d="M69.58 110.078H44.9a2.396 2.396 0 0 1-2.393-2.393v-1.237a2.397 2.397 0 0 1 2.393-2.394h24.68a2.397 2.397 0 0 1 2.394 2.394v1.237a2.396 2.396 0 0 1-2.394 2.393zm-24.68-5.023c-.768 0-1.393.625-1.393 1.394v1.237c0 .768.625 1.393 1.393 1.393h24.68c.769 0 1.394-.625 1.394-1.393v-1.237c0-.769-.625-1.394-1.394-1.394z"/></g><path d="M66.446 109.489c-.004-.004-.004-.007-.004-.011l-.011-.026a2.09 2.09 0 0 0-2.296-1.28l-8.753 1.529-10.07-2.456-1.764-.971a.592.592 0 0 1-.301-.491l-3.134-2.489 2.308-.774.818.722c.982.867 2.454.87 3.439.008l.217-.19a.744.744 0 0 0 .07-1.05l-2.522-2.883a1.848 1.848 0 0 0-.953-.578 1.852 1.852 0 0 0-1.625-.233l-7.89 2.611-.574.145c-1.603.404-2.924.752-4.174 1.862l-22.816 8.033C2.768 112.25.453 115.05.503 118.115l.041 2.541c.068 4.251 4.598 7.67 10.16 7.67h.716c2.595 0 5.087-.759 6.974-2.121l16.233-11.723c.328-.011.658-.015.99.01l.067.007 8.511.856a4 4 0 0 0 2.776-.748l2.304-1.675 4.54.532c1.038.13 2.091.03 3.081-.298l9.21-3.011a.528.528 0 0 0 .34-.666z" fill="#fff"/><path d="M11.417 128.826h-.715c-5.807 0-10.589-3.661-10.66-8.162l-.041-2.541c-.053-3.279 2.396-6.273 6.242-7.627l22.726-8.001c1.346-1.162 2.786-1.524 4.309-1.908l.574-.145 7.854-2.601a2.356 2.356 0 0 1 1.989.244c.438.125.824.37 1.123.712l2.522 2.883a1.246 1.246 0 0 1-.117 1.756l-.216.189c-1.139.996-2.968.989-4.101-.009l-.601-.531-1.162.39 2.413 1.916a.497.497 0 0 1 .189.377l1.752 1.008 9.899 2.414 8.65-1.511a2.571 2.571 0 0 1 2.846 1.586l.009.022c.006.015.013.03.018.047.085.263.063.542-.063.787s-.34.426-.604.51l-9.206 3.01a7.56 7.56 0 0 1-3.299.318l-4.342-.508-2.146 1.56a4.469 4.469 0 0 1-3.122.841l-8.509-.856a6.679 6.679 0 0 0-.839-.019L18.685 126.61c-1.98 1.429-4.56 2.216-7.268 2.216zM42.44 98.724c-.142 0-.283.022-.42.067l-8.498 2.767c-1.491.375-2.779.698-3.964 1.751a.506.506 0 0 1-.166.098L6.575 111.44c-3.433 1.208-5.62 3.825-5.574 6.668l.041 2.541c.063 3.958 4.396 7.178 9.66 7.178h.715c2.499 0 4.872-.72 6.682-2.026l16.232-11.723a.504.504 0 0 1 .275-.095 9.375 9.375 0 0 1 1.046.011l8.59.865a3.53 3.53 0 0 0 2.432-.655l2.305-1.675a.513.513 0 0 1 .353-.093l4.54.531a6.485 6.485 0 0 0 2.865-.275l9.242-3.023-.004-.009c-.292-.717-.997-1.128-1.755-.994l-8.752 1.528a.469.469 0 0 1-.204-.007l-10.07-2.456a.496.496 0 0 1-.123-.047l-1.764-.971a1.108 1.108 0 0 1-.52-.656l-2.985-2.371a.5.5 0 0 1 .151-.866l2.309-.773a.493.493 0 0 1 .49.099l.817.722c.768.678 2.01.682 2.779.007l.216-.19a.247.247 0 0 0 .084-.168.244.244 0 0 0-.061-.177l-2.521-2.883a1.36 1.36 0 0 0-.696-.422.51.51 0 0 1-.162-.071 1.352 1.352 0 0 0-.768-.24z" fill="#1d2445"/><path d="m142 266.186-.038-.873a4.316 4.316 0 0 0-2.135-3.542l-13.764-8.045a12.923 12.923 0 0 1-5.63-6.756l-2.034-5.613a4.314 4.314 0 0 0-2.818-2.664l-13.502-4.054-.864 2.878-3.178 4.25a28.774 28.774 0 0 0-4.586 9.201l-.705 2.427 21.009 6.308.001.001 26.387 7.923a1.441 1.441 0 0 0 1.857-1.441z" fill="#fff"/><path d="M140.562 268.191c-.189 0-.378-.027-.562-.083l-47.396-14.233a.5.5 0 0 1-.337-.618l.704-2.428a29.172 29.172 0 0 1 4.666-9.361l3.126-4.179.839-2.792a.499.499 0 0 1 .622-.335l13.501 4.054a4.84 4.84 0 0 1 3.145 2.973l2.033 5.613a12.454 12.454 0 0 0 5.412 6.494l13.765 8.044a4.799 4.799 0 0 1 2.383 3.952l.037.873a1.929 1.929 0 0 1-.536 1.425 1.956 1.956 0 0 1-1.402.601zm-47.196-15.132 46.922 14.092a.947.947 0 0 0 .954-.253.927.927 0 0 0 .258-.69l-.037-.873a3.804 3.804 0 0 0-1.887-3.132l-13.765-8.044a13.45 13.45 0 0 1-5.848-7.018l-2.033-5.612a3.836 3.836 0 0 0-2.492-2.356l-13.022-3.909-.721 2.397a.497.497 0 0 1-.078.156l-3.179 4.25a28.16 28.16 0 0 0-4.506 9.041z" fill="#1d2445"/><path d="m92.84 253.018 48.545 14.577-1.095 3.646-48.544-14.576z" fill="#fff"/><path d="M140.286 271.728a.507.507 0 0 1-.144-.021L91.601 257.13a.5.5 0 0 1-.335-.622l1.095-3.646a.5.5 0 0 1 .622-.335l48.542 14.575a.498.498 0 0 1 .335.622l-1.095 3.646a.502.502 0 0 1-.479.358zm-47.919-15.412 47.584 14.288.807-2.688-47.584-14.287zm7.658-19.246 36.067 8.613 13.145-94.644c.679-5.38-3.325-10.216-8.738-10.552l-27.316-1.695-10.808 26.914a48.872 48.872 0 0 0-3.467 20.494z" fill="#1d2445"/><path d="M136.092 246.183a.504.504 0 0 1-.116-.014l-36.067-8.613a.5.5 0 0 1-.384-.476l-1.117-50.868a49.031 49.031 0 0 1 3.503-20.691l10.809-26.914c.08-.199.25-.344.495-.313l27.315 1.694c2.757.171 5.245 1.437 7.007 3.564s2.542 4.809 2.196 7.549l-13.146 94.649a.505.505 0 0 1-.495.433zm-35.576-9.51 35.156 8.396 13.069-94.098a8.807 8.807 0 0 0-1.975-6.78 8.811 8.811 0 0 0-6.3-3.204l-26.955-1.672-10.674 26.579a48.066 48.066 0 0 0-3.432 20.284z" fill="#1d2445"/><path d="M104.37 167.646a.49.49 0 0 1-.252-.068l-32.165-18.801a.5.5 0 0 1 .504-.864l32.165 18.801a.5.5 0 0 1-.252.932zm31.722 78.537a.487.487 0 0 1-.12-.015l-12.074-2.994a.498.498 0 1 1 .24-.97l11.544 2.862 8.534-54.603a.501.501 0 0 1 .988.154l-8.618 55.143a.495.495 0 0 1-.218.339.495.495 0 0 1-.276.084z" fill="#fff"/><path d="M99.547 207.43h-.013a.501.501 0 0 1-.487-.513l.333-12.609c-.311-1.583.071-6.853 1.136-15.668a34.26 34.26 0 0 1 4.142-12.692l6.12-10.929a.5.5 0 1 1 .873.489l-6.12 10.929a33.246 33.246 0 0 0-4.022 12.323c-1.035 8.576-1.439 14.044-1.139 15.396.009.04.013.081.012.121l-.334 12.667a.502.502 0 0 1-.501.486z" fill="#fff"/></svg></g></svg>