<svg xmlns="http://www.w3.org/2000/svg" xmlns:xlink="http://www.w3.org/1999/xlink" width="960" zoomAndPan="magnify" viewBox="0 0 720 809.999993" height="1080" preserveAspectRatio="xMidYMid meet" version="1.0"><defs><clipPath id="aa24a259cd"><path d="M 144 135 L 495 135 L 495 675 L 144 675 Z M 144 135 " clip-rule="nonzero"/></clipPath><clipPath id="4dbb0aa15f"><path d="M 206.277344 108.507812 L 626.464844 281.304688 L 453.671875 701.492188 L 33.484375 528.695312 Z M 206.277344 108.507812 " clip-rule="nonzero"/></clipPath><clipPath id="8a427c7d54"><path d="M 206.277344 108.507812 L 626.464844 281.304688 L 453.671875 701.492188 L 33.484375 528.695312 Z M 206.277344 108.507812 " clip-rule="nonzero"/></clipPath><clipPath id="d6385c71fa"><path d="M 316 164.035156 L 452 164.035156 L 452 463.371094 L 316 463.371094 Z M 316 164.035156 " clip-rule="nonzero"/></clipPath></defs><g clip-path="url(#aa24a259cd)"><g clip-path="url(#4dbb0aa15f)"><g clip-path="url(#8a427c7d54)"><path fill="#0f172a" d="M 494.421875 587.625 C 494.117188 597.085938 492.285156 606.625 488.769531 615.945312 C 488.476562 616.851562 488.113281 617.726562 487.738281 618.636719 C 468.929688 664.382812 416.5625 686.226562 370.820312 667.417969 C 184.511719 590.800781 95.589844 377.667969 172.207031 191.359375 C 191.019531 145.617188 243.386719 123.769531 289.128906 142.578125 C 290.039062 142.953125 290.914062 143.316406 291.765625 143.742188 C 300.863281 147.800781 308.964844 153.222656 315.898438 159.664062 L 291.625 307.117188 C 291.597656 307.1875 291.550781 307.207031 291.46875 307.210938 L 223.882812 309.390625 L 223.683594 309.390625 C 217.082031 399.867188 254.203125 488.839844 323.148438 547.800781 L 323.289062 547.65625 L 372.429688 501.136719 L 494.421875 587.625 " fill-opacity="1" fill-rule="nonzero"/></g></g></g><path fill="#0f172a" d="M 494.710938 419.148438 C 487.992188 419.148438 483.511719 416.90625 479.035156 412.429688 C 470.074219 403.46875 470.074219 390.03125 479.035156 381.074219 L 552.941406 307.164062 L 479.035156 233.257812 C 470.074219 224.300781 470.074219 210.863281 479.035156 201.902344 C 487.992188 192.945312 501.429688 192.945312 510.386719 201.902344 L 599.972656 291.488281 C 608.933594 300.445312 608.933594 313.882812 599.972656 322.84375 L 510.386719 412.429688 C 505.910156 416.90625 501.429688 419.148438 494.710938 419.148438 Z M 494.710938 419.148438 " fill-opacity="1" fill-rule="nonzero"/><g clip-path="url(#d6385c71fa)"><path fill="#0f172a" d="M 337.9375 463.941406 C 335.699219 463.941406 333.457031 463.941406 331.21875 461.699219 C 320.019531 457.222656 313.300781 446.023438 317.78125 432.585938 L 407.367188 163.828125 C 411.84375 152.632812 423.042969 145.914062 436.480469 150.390625 C 447.679688 154.871094 454.398438 166.070312 449.917969 179.507812 L 360.332031 448.261719 C 355.855469 457.222656 346.894531 463.941406 337.9375 463.941406 Z M 337.9375 463.941406 " fill-opacity="1" fill-rule="nonzero"/></g></svg>