<svg xmlns="http://www.w3.org/2000/svg" xmlns:xlink="http://www.w3.org/1999/xlink" width="960" zoomAndPan="magnify" viewBox="0 0 720 195.000001" height="260" preserveAspectRatio="xMidYMid meet" version="1.0"><defs><g/></defs><g fill="#94a3b8" fill-opacity="1"><g transform="translate(15.049727, 127.813192)"><g><path d="M 6.746094 -1.660156 C 6.746094 -25.660156 6.746094 -51.648438 6.746094 -75.648438 L 31.1875 -75.648438 C 79.742188 -75.648438 79.742188 -1.660156 31.1875 -1.660156 Z M 5.085938 -77.308594 C 5.085938 -51.539062 5.085938 -25.769531 5.085938 0 L 31.1875 0 C 81.953125 0 81.953125 -77.308594 31.1875 -77.308594 Z M 5.085938 -77.308594 "/></g></g></g><g fill="#94a3b8" fill-opacity="1"><g transform="translate(82.402588, 127.813192)"><g><path d="M 6.96875 -37.824219 L 47.003906 -37.824219 L 47.003906 -39.59375 L 6.96875 -39.59375 L 6.96875 -75.648438 L 47.890625 -75.648438 L 47.890625 -77.308594 L 5.199219 -77.308594 L 5.199219 0 L 48.109375 0 L 48.109375 -1.660156 L 6.96875 -1.660156 Z M 6.96875 -37.824219 "/></g></g></g><g fill="#94a3b8" fill-opacity="1"><g transform="translate(128.742167, 127.813192)"><g><path d="M 32.625 -0.996094 L 2.542969 -77.308594 L 0.664062 -77.308594 L 31.742188 1.214844 L 33.621094 1.214844 L 64.699219 -77.308594 L 62.820312 -77.308594 Z M 32.625 -0.996094 "/></g></g></g><g fill="#94a3b8" fill-opacity="1"><g transform="translate(189.348654, 127.813192)"><g><path d="M 75.539062 -53.75 C 73.660156 -58.285156 70.894531 -62.378906 67.574219 -65.804688 C 60.71875 -72.882812 51.316406 -77.199219 40.8125 -77.199219 C 30.304688 -77.199219 20.902344 -72.882812 14.046875 -65.804688 C 7.300781 -58.839844 2.984375 -49.214844 2.984375 -38.597656 C 2.984375 -27.871094 7.300781 -18.25 14.046875 -11.28125 C 20.902344 -4.203125 30.304688 0.109375 40.8125 0.109375 C 51.316406 0.109375 60.71875 -4.203125 67.574219 -11.28125 C 70.894531 -14.710938 73.660156 -18.800781 75.539062 -23.335938 L 73.660156 -23.335938 C 71.890625 -19.242188 69.34375 -15.703125 66.359375 -12.609375 C 59.832031 -5.863281 50.765625 -1.660156 40.8125 -1.660156 C 30.855469 -1.660156 21.789062 -5.863281 15.261719 -12.609375 C 8.738281 -19.242188 4.644531 -28.421875 4.644531 -38.597656 C 4.644531 -48.664062 8.738281 -57.84375 15.261719 -64.589844 C 21.789062 -71.335938 30.855469 -75.429688 40.8125 -75.429688 C 50.765625 -75.429688 59.832031 -71.335938 66.359375 -64.589844 C 69.34375 -61.492188 71.890625 -57.84375 73.660156 -53.75 Z M 75.539062 -53.75 "/></g></g></g><g fill="#94a3b8" fill-opacity="1"><g transform="translate(263.447887, 127.813192)"><g><path d="M 80.40625 -38.710938 C 80.40625 -28.203125 76.203125 -18.800781 69.457031 -11.945312 C 62.597656 -4.976562 53.085938 -0.664062 42.691406 -0.664062 C 32.292969 -0.664062 22.894531 -4.976562 16.035156 -11.945312 C 9.289062 -18.800781 4.976562 -28.203125 4.976562 -38.710938 C 4.976562 -49.214844 9.289062 -58.617188 16.035156 -65.472656 C 22.894531 -72.441406 32.292969 -76.753906 42.691406 -76.753906 C 53.085938 -76.753906 62.597656 -72.441406 69.457031 -65.472656 C 76.203125 -58.617188 80.40625 -49.214844 80.40625 -38.710938 Z M 3.207031 -38.710938 C 3.207031 -27.761719 7.742188 -17.804688 14.820312 -10.617188 C 21.898438 -3.316406 31.851562 1.105469 42.691406 1.105469 C 53.640625 1.105469 63.484375 -3.316406 70.671875 -10.617188 C 77.75 -17.804688 82.285156 -27.761719 82.285156 -38.710938 C 82.285156 -49.660156 77.75 -59.613281 70.671875 -66.800781 C 63.484375 -74.101562 53.640625 -78.523438 42.691406 -78.523438 C 31.851562 -78.523438 21.898438 -74.101562 14.820312 -66.800781 C 7.742188 -59.613281 3.207031 -49.660156 3.207031 -38.710938 Z M 3.207031 -38.710938 "/></g></g></g><g fill="#94a3b8" fill-opacity="1"><g transform="translate(343.961704, 127.813192)"><g><path d="M 6.96875 0 L 6.96875 -73.878906 L 58.0625 0 L 59.832031 0 L 59.832031 -77.417969 L 58.175781 -77.417969 L 58.175781 -3.097656 L 6.746094 -77.417969 L 5.199219 -77.53125 L 5.199219 0 Z M 6.96875 0 "/></g></g></g><g fill="#94a3b8" fill-opacity="1"><g transform="translate(404.346995, 127.813192)"><g><path d="M 29.417969 0 L 29.417969 -75.648438 L 56.183594 -75.648438 L 56.183594 -77.417969 L 0.996094 -77.417969 L 0.996094 -75.648438 L 27.761719 -75.648438 L 27.761719 0 Z M 29.417969 0 "/></g></g></g><g fill="#94a3b8" fill-opacity="1"><g transform="translate(457.322339, 127.813192)"><g><path d="M 32.40625 -76.203125 L 51.316406 -27.648438 L 13.605469 -27.648438 Z M 62.597656 0 L 64.480469 0 L 33.402344 -78.523438 L 31.519531 -78.523438 L 0.441406 0 L 2.324219 0 L 12.828125 -25.992188 L 51.980469 -25.992188 Z M 62.597656 0 "/></g></g></g><g fill="#94a3b8" fill-opacity="1"><g transform="translate(517.70763, 127.813192)"><g><path d="M 75.539062 -53.75 C 73.660156 -58.285156 70.894531 -62.378906 67.574219 -65.804688 C 60.71875 -72.882812 51.316406 -77.199219 40.8125 -77.199219 C 30.304688 -77.199219 20.902344 -72.882812 14.046875 -65.804688 C 7.300781 -58.839844 2.984375 -49.214844 2.984375 -38.597656 C 2.984375 -27.871094 7.300781 -18.25 14.046875 -11.28125 C 20.902344 -4.203125 30.304688 0.109375 40.8125 0.109375 C 51.316406 0.109375 60.71875 -4.203125 67.574219 -11.28125 C 70.894531 -14.710938 73.660156 -18.800781 75.539062 -23.335938 L 73.660156 -23.335938 C 71.890625 -19.242188 69.34375 -15.703125 66.359375 -12.609375 C 59.832031 -5.863281 50.765625 -1.660156 40.8125 -1.660156 C 30.855469 -1.660156 21.789062 -5.863281 15.261719 -12.609375 C 8.738281 -19.242188 4.644531 -28.421875 4.644531 -38.597656 C 4.644531 -48.664062 8.738281 -57.84375 15.261719 -64.589844 C 21.789062 -71.335938 30.855469 -75.429688 40.8125 -75.429688 C 50.765625 -75.429688 59.832031 -71.335938 66.359375 -64.589844 C 69.34375 -61.492188 71.890625 -57.84375 73.660156 -53.75 Z M 75.539062 -53.75 "/></g></g></g><g fill="#94a3b8" fill-opacity="1"><g transform="translate(591.806845, 127.813192)"><g><path d="M 29.417969 0 L 29.417969 -75.648438 L 56.183594 -75.648438 L 56.183594 -77.417969 L 0.996094 -77.417969 L 0.996094 -75.648438 L 27.761719 -75.648438 L 27.761719 0 Z M 29.417969 0 "/></g></g></g><g fill="#94a3b8" fill-opacity="1"><g transform="translate(644.782152, 127.813192)"><g><path d="M 52.753906 -60.277344 L 54.414062 -60.609375 L 54.304688 -61.492188 C 50.542969 -81.511719 18.691406 -83.390625 7.410156 -68.792969 C 4.535156 -65.03125 3.316406 -60.496094 3.761719 -55.851562 C 5.75 -26.984375 49.4375 -48 54.414062 -24.996094 C 57.621094 -9.621094 43.023438 -0.886719 29.53125 -0.886719 C 19.023438 -0.886719 6.082031 -6.746094 4.867188 -18.359375 L 4.753906 -19.132812 L 2.984375 -18.914062 L 3.097656 -18.136719 C 4.425781 -5.640625 18.136719 0.773438 29.417969 0.773438 C 44.128906 0.773438 59.613281 -8.957031 56.074219 -25.328125 C 50.765625 -50.101562 7.410156 -28.867188 5.417969 -55.960938 C 5.085938 -60.277344 6.082031 -64.367188 8.847656 -67.796875 C 13.492188 -73.878906 21.789062 -76.535156 29.085938 -76.644531 C 36.054688 -76.753906 43.6875 -74.652344 48.441406 -69.566406 C 50.652344 -67.132812 51.980469 -64.367188 52.644531 -61.160156 Z M 52.753906 -60.277344 "/></g></g></g></svg>